#N canvas 227 29 1217 847 12;
#X obj 607 260 tabwrite~ \$0-osc;
#N canvas 0 50 450 250 (subpatch) 0;
#X array \$0-osc 200 float 0;
#X coords 0 1 200 -1 320 120 1 0 0;
#X restore 40 651 graph;
#X obj 23 208 hsl 360 84 24 2 1 0 empty empty bit\ depth 0 -32 1 48 #fcfcfc #000000 #000000 0 0;
#X obj 496 40 adc~ 1;
#X obj 568 574 dac~;
#X obj 508 84 expr~ $v1*0.5+0.5;
#X obj 882 191 loadbang;
#X msg 883 237 \; pd dsp 1;
#X obj 401 239 vu 36 520 empty empty -1 -10 1 16 #000000 #000000 1 0;
#X obj 503 574 - 100;
#X obj 501 482 env~;
#X obj 538 164 fexpr~ int($x1*pow(2 \, $i2)) / pow(2 \, $i2);
#X obj 563 208 fexpr~ $x1*2-1;
#X floatatom 218 155 5 0 0 2 - - - 36;
#X obj 791 86 int;
#X obj 106 355 hsl 276 84 0 2 0 0 empty empty gain 0 -32 1 48 #fcfcfc #000000 #000000 0 0;
#X obj 558 447 *~;
#X obj 609 236 metro 42;
#X msg 805 215 32;
#X msg 806 248 1;
#X obj 19 355 bng 84 250 50 0 empty empty empty 0 -32 1 48 #fcfcfc #000000 #000000;
#X obj 557 396 lop~;
#X obj 20 529 hsl 360 84 200 20000 1 0 empty empty lo-pass 0 -32 1 48 #fcfcfc #000000 #000000 0 0;
#X msg 809 292 20000;
#X msg 1088 119 dir;
#X obj 1088 144 pdcontrol;
#X obj 1009 228 pack s s;
#X obj 985 124 t b b b;
#X msg 1075 365 dir;
#X obj 1075 390 pdcontrol;
#X obj 996 474 pack s s;
#X obj 972 370 t b b b;
#X obj 361 9 bng 100 250 50 0 empty empty > 24 50 0 96 #b9e5ab #ffffff #77a774;
#X obj 60 12 bng 100 250 50 0 empty empty < 20 50 0 96 #b9e5ab #ffffff #77a774;
#X msg 1009 258 \; pd open trem.pd \$2 \; pd open killer.pd \$2 \; kill_me symbol \$1;
#X msg 1009 203 symbol bitcrush.pd;
#X msg 996 504 \; pd open sat.pd \$2 \; pd open killer.pd \$2 \; kill_me symbol \$1;
#X msg 996 449 symbol bitcrush.pd;
#X connect 2 0 14 0;
#X connect 3 0 5 0;
#X connect 5 0 11 0;
#X connect 6 0 7 0;
#X connect 6 0 18 0;
#X connect 6 0 19 0;
#X connect 6 0 23 0;
#X connect 6 0 17 0;
#X connect 9 0 8 0;
#X connect 10 0 9 0;
#X connect 11 0 12 0;
#X connect 12 0 0 0;
#X connect 12 0 21 0;
#X connect 14 0 11 1;
#X connect 14 0 13 0;
#X connect 15 0 16 1;
#X connect 16 0 4 0;
#X connect 16 0 10 0;
#X connect 17 0 0 0;
#X connect 18 0 2 0;
#X connect 19 0 15 0;
#X connect 20 0 19 0;
#X connect 21 0 16 0;
#X connect 22 0 21 1;
#X connect 23 0 22 0;
#X connect 24 0 25 0;
#X connect 25 0 26 1;
#X connect 26 0 34 0;
#X connect 27 1 35 0;
#X connect 27 2 24 0;
#X connect 28 0 29 0;
#X connect 29 0 30 1;
#X connect 30 0 36 0;
#X connect 31 1 37 0;
#X connect 31 2 28 0;
#X connect 32 0 27 0;
#X connect 33 0 31 0;
#X connect 35 0 26 0;
#X connect 37 0 30 0;
#X coords 0 -1 1 1 481 801 2 0 0;
