#N canvas 420 138 781 577 12;
#X text 239 38 <-- argument sets initial frequency;
#X obj 268 410 tabwrite~ \$0-osc;
#X obj 278 347 loadbang;
#N canvas 0 50 450 250 (subpatch) 0;
#X array \$0-osc 441 float 0;
#X coords 0 1 440 0 200 100 1 0 0;
#X restore 448 343 graph;
#X obj 153 10 hsl 162 19 0 0.5 0 0 empty empty empty -2 -10 0 12 #fcfcfc #000000 #000000 0 1;
#X obj 95 86 expr~ $v1*0.5+0.5;
#X obj 463 99 hradio 19 1 0 8 empty empty empty 0 -10 0 12 #fcfcfc #000000 #000000 0;
#X obj 397 149 hsl 162 19 2 32 0 0 empty empty empty -2 -10 0 12 #fcfcfc #000000 #000000 0 1;
#X obj 496 267 fexpr~ int($x1*pow(2 \, $i2)) / pow(2 \, $i2);
#X obj 268 217 fexpr~ int($x1*$i2)/$i2;
#X obj 278 376 metro 50;
#X obj 83 42 adc~ 1;
#X connect 2 0 10 0;
#X connect 5 0 9 0;
#X connect 7 0 9 1;
#X connect 9 0 1 0;
#X connect 10 0 1 0;
#X connect 11 0 5 0;
