#N canvas 251 25 1047 847 12;
#X obj 614 302 tabwrite~ \$0-osc;
#X obj 624 239 loadbang;
#N canvas 0 50 450 250 (subpatch) 0;
#X array \$0-osc 200 float 0;
#X coords 0 1 200 -1 320 200 1 0 0;
#X restore 40 561 graph;
#X obj 23 288 hsl 360 84 32 2 0 0 empty empty bit\ depth 0 -32 1 48 #fcfcfc #000000 #000000 0 0;
#X obj 496 40 adc~ 1;
#X obj 558 576 dac~;
#X obj 508 84 expr~ $v1*0.5+0.5;
#X obj 678 37 fexpr~ int($x1*$i2)/$i2;
#X obj 882 191 loadbang;
#X msg 883 237 \; pd dsp 1;
#X obj 401 239 vu 36 520 empty empty -1 -10 1 16 #000000 #000000 1 0;
#X obj 585 372 - 100;
#X obj 582 335 env~;
#X obj 538 164 fexpr~ int($x1*pow(2 \, $i2)) / pow(2 \, $i2);
#X obj 563 208 fexpr~ $x1*2-1;
#X floatatom 218 235 5 0 0 2 - - - 36;
#X obj 791 86 int;
#X obj 106 435 hsl 276 84 0 2 0 0 empty empty gain 0 -32 1 48 #fcfcfc #000000 #000000 0 0;
#X obj 562 446 *~;
#X obj 624 268 metro 42;
#X msg 781 265 32;
#X msg 832 266 1;
#X obj 19 435 bng 84 250 50 0 empty empty empty 0 -32 1 48 #fcfcfc #000000 #000000;
#X connect 1 0 19 0;
#X connect 3 0 16 0;
#X connect 4 0 6 0;
#X connect 6 0 13 0;
#X connect 8 0 9 0;
#X connect 8 0 20 0;
#X connect 8 0 21 0;
#X connect 11 0 10 0;
#X connect 12 0 11 0;
#X connect 13 0 14 0;
#X connect 14 0 0 0;
#X connect 14 0 12 0;
#X connect 14 0 18 0;
#X connect 16 0 13 1;
#X connect 16 0 15 0;
#X connect 17 0 18 1;
#X connect 18 0 5 0;
#X connect 18 0 5 1;
#X connect 19 0 0 0;
#X connect 20 0 3 0;
#X connect 21 0 17 0;
#X connect 22 0 21 0;
#X coords 0 -1 1 1 481 801 2 0 0;
