#N canvas 146 213 447 300 12;
#X obj 27 -106 keyname;
#X obj 29 -80 spigot;
#X obj 29 -10 - 1;
#X obj 85 -10 + 1;
#X obj 29 23 t f b;
#X obj 29 77 +;
#X obj 126 160 outlet;
#X obj 29 -44 sel \$1;
#X obj 85 -44 sel \$2;
#X obj 29 119 clip \$3 \$4;
#X obj 79 43 inlet;
#X connect 0 0 1 1;
#X connect 0 1 1 0;
#X connect 1 0 7 0;
#X connect 1 0 8 0;
#X connect 2 0 4 0;
#X connect 3 0 4 0;
#X connect 4 0 5 0;
#X connect 4 1 6 0;
#X connect 5 0 9 0;
#X connect 7 0 2 0;
#X connect 8 0 3 0;
#X connect 9 0 6 0;
#X connect 10 0 5 1;
#X coords 0 300 1 299 39 40 0;
