#N canvas 792 460 447 300 12;
#X obj 27 -106 keyname;
#X obj 104 119 hsl 162 19 0 20 0 0 empty empty empty -2 -10 0 12 #fcfcfc #000000 #000000 0 1;
#X obj 32 -77 spigot;
#X obj 30 0 - 1;
#X obj 64 -1 + 1;
#X obj 30 33 t f b;
#X obj 30 66 +;
#X obj 99 190 outlet;
#X obj 30 95 clip 0 20;
#X obj 119 -75 inlet;
#X obj 203 -77 inlet;
#X obj 30 -31 sel a;
#X obj 130 -31 sel s;
#X connect 0 0 2 1;
#X connect 0 1 2 0;
#X connect 1 0 6 1;
#X connect 1 0 7 0;
#X connect 2 0 11 0;
#X connect 2 0 12 0;
#X connect 3 0 5 0;
#X connect 4 0 5 0;
#X connect 5 0 6 0;
#X connect 5 1 1 0;
#X connect 6 0 8 0;
#X connect 8 0 1 0;
#X connect 9 0 11 1;
#X connect 10 0 12 1;
#X connect 11 0 3 0;
#X connect 12 0 4 0;
#X coords 0 -1 1 1 180 40 1 100 100;
