#N canvas 11 25 1404 847 12;
#X obj 0 0 cnv 19 480 800 empty empty empty 20 12 0 12 #cfedae #404040 0;
#X obj 540 127 *~;
#X obj 14 262 hsl 360 84 1 20 1 1 empty empty input 0 -32 1 48 #bae6ac #75a774 #75a774 0 0;
#X obj 550 631 dac~, f 5;
#X obj 621 20 bng 19 250 50 0 empty empty empty 0 -10 0 12 #fcfcfc #000000 #000000;
#X obj 398 252 vu 18 520 empty empty -1 -10 0 12 #5a5457 #000000 0 0;
#X msg 621 51 1;
#X floatatom 621 103 5 0 0 0 - - - 0;
#X obj 698 176 - 100;
#X obj 699 145 env~;
#X obj 539 32 adc~ 1;
#X obj 418 252 vu 18 520 empty empty -1 -10 1 16 #575757 #575757 1 0;
#X obj 16 456 hsl 360 84 1 10 0 1 empty empty saturation 0 -32 1 48 #b9e5ab #75a774 #75a774 0 0;
#X obj 578 312 sig~;
#X obj 538 350 expr~ tanh($v1*$v2*2.718);
#X obj 362 12 bng 100 250 50 0 empty empty > 24 50 0 96 #b9e5ab #ffffff #77a774;
#X msg 1248 269 dir;
#X obj 1248 294 pdcontrol;
#X obj 1129 317 pack s s;
#X obj 1105 213 t b b b;
#X obj 17 654 hsl 360 84 0 1 0 1 empty empty output 0 -32 1 48 #b8e4aa #75a774 #77a774 35900 0;
#X msg 1129 292 symbol sat.pd;
#X obj 966 14 keyname;
#X obj 968 46 spigot;
#X obj 968 75 sel k;
#X obj 703 17 loadbang;
#X msg 703 41 \; pd dsp 1;
#X msg 1235 515 dir;
#X obj 1235 540 pdcontrol;
#X obj 1116 563 pack s s;
#X obj 1092 459 t b b b;
#X msg 1116 538 symbol sat.pd;
#X obj 20 12 bng 100 250 50 0 empty empty < 20 50 0 96 #b9e5ab #ffffff #77a774;
#X floatatom 575 516 5 0 0 0 - - - 0;
#X obj 669 605 - 100;
#X obj 670 574 env~;
#X floatatom 669 629 5 0 0 0 - - - 0;
#X obj 565 560 *~;
#X msg 1129 347 \; pd open bitcrush.pd \$2 \; pd open killer.pd \$2 \; kill_me symbol \$1;
#X msg 1116 593 \; pd open trem.pd \$2 \; pd open killer.pd \$2 \; kill_me symbol \$1;
#X connect 1 0 9 0;
#X connect 1 0 14 0;
#X connect 2 0 7 0;
#X connect 4 0 6 0;
#X connect 6 0 2 0;
#X connect 6 0 12 0;
#X connect 6 0 20 0;
#X connect 7 0 1 1;
#X connect 8 0 5 0;
#X connect 9 0 8 0;
#X connect 10 0 1 0;
#X connect 12 0 13 0;
#X connect 13 0 14 1;
#X connect 14 0 37 0;
#X connect 15 0 19 0;
#X connect 16 0 17 0;
#X connect 17 0 18 1;
#X connect 18 0 38 0;
#X connect 19 1 21 0;
#X connect 19 2 16 0;
#X connect 20 0 37 1;
#X connect 21 0 18 0;
#X connect 22 0 23 1;
#X connect 22 1 23 0;
#X connect 23 0 24 0;
#X connect 25 0 26 0;
#X connect 25 0 6 0;
#X connect 27 0 28 0;
#X connect 28 0 29 1;
#X connect 29 0 39 0;
#X connect 30 1 31 0;
#X connect 30 2 27 0;
#X connect 31 0 29 0;
#X connect 32 0 30 0;
#X connect 33 0 37 1;
#X connect 34 0 36 0;
#X connect 35 0 34 0;
#X connect 36 0 11 0;
#X connect 37 0 3 0;
#X connect 37 0 35 0;
#X coords 0 -1 1 1 480 800 2 0 0;
