#N canvas 6 25 1434 847 12;
#X obj 607 135 *~;
#X obj 23 288 hsl 360 84 1 100 0 1 empty empty gain 0 -32 1 48 #fcfcfc #000000 #000000 0 0;
#X obj 592 678 dac~, f 5;
#X obj 402 249 vu 36 520 empty empty -1 -10 1 16 #000000 #000000 1 0;
#X obj 722 705 - 100;
#X obj 722 675 env~;
#X obj 645 309 osc~;
#X obj 23 472 hsl 360 84 1 20 0 0 empty empty frequency 0 -32 1 48 #fcfcfc #000000 #000000 0 0;
#X obj 630 450 *~;
#X obj 612 536 *~;
#X obj 604 37 adc~ 1;
#X obj 23 656 hsl 360 84 0 1 0 0 empty empty wavedepth 0 -32 1 48 #fcfcfc #000000 #000000 0 0;
#X obj 677 471 expr 1 - $f1;
#X obj 631 488 +~;
#X obj 817 16 loadbang;
#X obj 340 60 bng 100 250 50 0 empty empty next 0 -24 1 48 #fcfcfc #000000 #000000;
#X msg 1234 154 dir;
#X obj 1234 179 pdcontrol;
#X obj 1115 202 pack s s;
#X obj 1091 98 t b b b;
#X msg 1115 232 \; pd open sat.pd \$2 \; pd open killer.pd \$2 \; kill_me symbol \$1;
#X obj 40 60 bng 100 250 50 0 empty empty back 0 -24 1 48 #fcfcfc #000000 #000000;
#X msg 1115 177 symbol trem.pd;
#X msg 817 40 \; pd dsp 1;
#X msg 1259 394 dir;
#X obj 1259 419 pdcontrol;
#X obj 1140 442 pack s s;
#X obj 1116 338 t b b b;
#X msg 1140 417 symbol trem.pd;
#X msg 733 32 1;
#X msg 730 60 0;
#X msg 1140 472 \; pd open bitcrush.pd \$2 \; pd open killer.pd \$2 \; kill_me symbol \$1;
#X connect 0 0 9 0;
#X connect 1 0 0 1;
#X connect 4 0 3 0;
#X connect 5 0 4 0;
#X connect 6 0 8 0;
#X connect 7 0 6 0;
#X connect 8 0 13 0;
#X connect 9 0 2 0;
#X connect 9 0 2 1;
#X connect 9 0 5 0;
#X connect 10 0 0 0;
#X connect 11 0 12 0;
#X connect 11 0 8 1;
#X connect 12 0 13 1;
#X connect 13 0 9 1;
#X connect 14 0 23 0;
#X connect 14 0 29 0;
#X connect 14 0 30 0;
#X connect 15 0 19 0;
#X connect 16 0 17 0;
#X connect 17 0 18 1;
#X connect 18 0 20 0;
#X connect 19 1 22 0;
#X connect 19 2 16 0;
#X connect 21 0 27 0;
#X connect 22 0 18 0;
#X connect 24 0 25 0;
#X connect 25 0 26 1;
#X connect 26 0 31 0;
#X connect 27 1 28 0;
#X connect 27 2 24 0;
#X connect 28 0 26 0;
#X connect 29 0 1 0;
#X connect 29 0 7 0;
#X connect 30 0 11 0;
#X coords 0 -1 1 1 481 801 2 0 0;
